<?xml version="1.0" encoding="UTF-8" ?>
<!DOCTYPE svg PUBLIC "-//W3C//DTD SVG 1.1//EN" "http://www.w3.org/Graphics/SVG/1.1/DTD/svg11.dtd">
<svg width="512pt" height="512pt" viewBox="0 0 512 512" version="1.1" xmlns="http://www.w3.org/2000/svg">
<g id="#000000ff">
<path fill="#000000" opacity="1.00" d=" M 236.47 70.76 C 270.71 67.14 305.93 73.16 336.93 88.16 C 367.75 102.91 394.36 126.31 412.90 155.02 C 431.93 184.32 442.49 219.05 442.96 253.99 C 443.66 295.23 430.14 336.52 405.24 369.40 C 385.74 395.25 359.42 415.92 329.62 428.59 C 301.86 440.57 271.14 445.52 241.02 443.09 C 210.31 440.64 180.23 430.48 154.40 413.68 C 125.82 395.28 102.47 368.89 87.71 338.27 C 71.66 305.26 65.64 267.46 70.76 231.10 C 75.82 194.18 92.22 158.90 117.29 131.31 C 147.79 97.40 191.08 75.35 236.47 70.76 M 136.04 132.01 C 113.38 153.69 96.93 181.72 88.87 212.01 C 80.06 244.65 81.23 279.87 92.07 311.88 C 101.92 341.30 119.92 367.90 143.50 388.05 C 143.32 369.36 148.12 350.63 157.48 334.45 C 170.55 311.48 192.64 293.99 217.89 286.28 C 217.89 286.10 217.89 285.73 217.89 285.55 C 202.06 276.44 189.65 261.54 183.80 244.21 C 177.83 226.92 178.49 207.46 185.58 190.60 C 191.39 176.62 201.49 164.48 214.16 156.20 C 226.77 147.86 241.92 143.47 257.02 143.73 C 274.05 143.88 290.95 150.00 304.11 160.82 C 317.24 171.44 326.67 186.56 330.35 203.06 C 334.40 220.58 331.83 239.50 323.33 255.34 C 316.54 268.20 305.90 278.90 293.26 286.05 C 313.80 292.12 332.38 304.62 345.66 321.44 C 360.65 340.15 368.76 364.12 368.50 388.08 C 403.29 358.46 425.45 314.62 428.53 269.03 C 431.10 234.55 422.90 199.40 405.46 169.55 C 388.28 139.90 362.02 115.64 331.13 100.81 C 302.68 87.02 270.40 81.36 238.95 84.49 C 200.61 88.17 163.74 105.24 136.04 132.01 M 249.16 158.14 C 235.92 159.57 223.22 165.42 213.52 174.53 C 201.98 185.19 194.82 200.36 193.88 216.03 C 191.96 240.99 207.19 265.96 230.01 276.08 C 245.34 283.22 263.64 283.60 279.30 277.24 C 293.62 271.54 305.61 260.27 312.21 246.34 C 318.36 233.64 319.88 218.80 316.42 205.12 C 312.55 189.02 301.88 174.73 287.59 166.38 C 276.11 159.56 262.41 156.67 249.16 158.14 M 190.00 317.09 C 173.46 330.91 162.13 350.79 158.73 372.08 C 157.17 380.93 157.56 389.94 157.52 398.88 C 196.50 426.21 247.06 436.11 293.48 425.59 C 315.30 420.80 336.11 411.63 354.48 398.94 C 354.43 391.62 354.73 384.26 353.93 376.96 C 352.02 359.04 344.61 341.75 332.95 328.01 C 319.33 311.80 299.87 300.64 279.00 297.08 C 268.78 295.16 258.34 295.85 248.01 295.74 C 226.96 295.78 206.07 303.51 190.00 317.09 Z" />
</g>
</svg>
